<?xml version="1.0" standalone="no"?>
<!DOCTYPE svg PUBLIC "-//W3C//DTD SVG 1.1//EN" "http://www.w3.org/Graphics/SVG/1.1/DTD/svg11.dtd" >
<svg xmlns="http://www.w3.org/2000/svg" xmlns:xlink="http://www.w3.org/1999/xlink" version="1.1" viewBox="-10 0 449 1000">
   <path fill="currentColor"
d="M161 885v-41q0 -3 41.5 -18.5t48 -15.5t19 17t12.5 35v53q0 25 -23.5 72.5t-64.5 71.5l-45 -42q34 -14 34 -64q0 -4 -11 -23t-11 -45zM50 732v-339q0 -33 -14 -57t-35 -24v-22q7 -1 109 -61q7 2 17 5.5t26.5 19.5t16.5 37q6 -3 34 -19q74 -42 88 -42q32 0 60 42t28 77
v303q0 55 49 65v22l-109 61q-22 -9 -41 -29.5t-19 -38.5v-290q0 -56 -12.5 -85.5t-44.5 -29.5l-33 6v319q0 61 41 69v22l-101 57q-22 -9 -41 -29.5t-19 -38.5z" />
</svg>
