<?xml version="1.0" standalone="no"?>
<!DOCTYPE svg PUBLIC "-//W3C//DTD SVG 1.1//EN" "http://www.w3.org/Graphics/SVG/1.1/DTD/svg11.dtd" >
<svg xmlns="http://www.w3.org/2000/svg" xmlns:xlink="http://www.w3.org/1999/xlink" version="1.1" viewBox="-10 0 441 1000">
   <path fill="currentColor"
d="M193 4q6 -10 49 -10t43 19q0 28 -90 144q-10 12 -35 12q-7 0 -11.5 -16t-4.5 -31t16 -53t33 -65zM50 654v-332q0 -5 83 -37.5t135 -48.5l23 -66l73 -39h25l-47 136q39 43 39 78v362q0 7 -86.5 42t-133.5 47l-22 64l-75 38h-22l45 -132q-37 -48 -37 -112zM236 331
q-12 -8 -29.5 -8t-36.5 15v186zM194 700q11 8 28.5 8t37.5 -16v-184z" />
</svg>
