<?xml version="1.0" standalone="no"?>
<!DOCTYPE svg PUBLIC "-//W3C//DTD SVG 1.1//EN" "http://www.w3.org/Graphics/SVG/1.1/DTD/svg11.dtd" >
<svg xmlns="http://www.w3.org/2000/svg" xmlns:xlink="http://www.w3.org/1999/xlink" version="1.1" viewBox="-10 0 1256 2000">
   <path fill="currentColor"
d="M977 2086c-122 0 -224 -66 -224 -187c0 -113 83 -235 200 -299h-874v-86l172 -18v-1274l-168 -22v-86h990l28 294h-96l-54 -192l-536 -10v582l368 -6l26 -166h100v442h-100l-26 -170l-368 -6v616l612 -16l102 -250l96 30l-62 338h-76c-127 64 -184 182 -184 265
c0 69 32 110 108 110c69 0 121 -27 182 -66l30 84c-69 48 -131 93 -246 93z" />
</svg>
